<svg width="6" height="10" viewBox="0 0 6 10" fill="none" xmlns="http://www.w3.org/2000/svg">
<path fill-rule="evenodd" clip-rule="evenodd" d="M1.89724 8.736C2.28124 8.936 2.73724 9.036 3.26524 9.036C3.79324 9.036 4.24924 8.936 4.63324 8.736C5.01724 8.536 5.31324 8.248 5.52124 7.872C5.73724 7.488 5.84524 7.036 5.84524 6.516V4.752C5.84524 4.232 5.73724 3.784 5.52124 3.408C5.31324 3.032 5.01724 2.744 4.63324 2.544C4.24924 2.344 3.79324 2.244 3.26524 2.244C2.73724 2.244 2.28124 2.344 1.89724 2.544C1.51324 2.744 1.21324 3.032 0.997242 3.408C0.789242 3.784 0.685242 4.236 0.685242 4.764V6.516C0.685242 7.036 0.789242 7.488 0.997242 7.872C1.21324 8.248 1.51324 8.536 1.89724 8.736ZM4.36924 7.68C4.10524 7.944 3.73724 8.076 3.26524 8.076C2.80124 8.076 2.43324 7.944 2.16124 7.68C1.89724 7.416 1.76524 7.028 1.76524 6.516V4.764C1.76524 4.252 1.89724 3.864 2.16124 3.6C2.43324 3.336 2.80124 3.204 3.26524 3.204C3.73724 3.204 4.10524 3.336 4.36924 3.6C4.63324 3.864 4.76524 4.252 4.76524 4.764V6.516C4.76524 7.028 4.63324 7.416 4.36924 7.68Z" fill="#E4E4E4"/>
<path d="M1.34524 0.900001V0H3.26524H5.18524V0.900001H1.34524Z" fill="#0075FF"/>
</svg>
