<svg width="34" height="10" viewBox="0 0 34 10" fill="none" xmlns="http://www.w3.org/2000/svg">
<path d="M0.115997 9V0.239998H1.196V3.984H4.004V0.239998H5.084V9H4.004V4.968H1.196V9H0.115997Z" fill="#E4E4E4"/>
<path d="M9.79531 9.096C9.26731 9.096 8.81131 8.996 8.42731 8.796C8.04331 8.596 7.74331 8.308 7.52731 7.932C7.31931 7.548 7.21531 7.096 7.21531 6.576V4.824C7.21531 4.296 7.31931 3.844 7.52731 3.468C7.74331 3.092 8.04331 2.804 8.42731 2.604C8.81131 2.404 9.26731 2.304 9.79531 2.304C10.3233 2.304 10.7793 2.404 11.1633 2.604C11.5473 2.804 11.8433 3.092 12.0513 3.468C12.2673 3.844 12.3753 4.292 12.3753 4.812V6.576C12.3753 7.096 12.2673 7.548 12.0513 7.932C11.8433 8.308 11.5473 8.596 11.1633 8.796C10.7793 8.996 10.3233 9.096 9.79531 9.096ZM9.79531 8.136C10.2673 8.136 10.6353 8.004 10.8993 7.74C11.1633 7.476 11.2953 7.088 11.2953 6.576V4.824C11.2953 4.312 11.1633 3.924 10.8993 3.66C10.6353 3.396 10.2673 3.264 9.79531 3.264C9.33131 3.264 8.96331 3.396 8.69131 3.66C8.42731 3.924 8.29531 4.312 8.29531 4.824V6.576C8.29531 7.088 8.42731 7.476 8.69131 7.74C8.96331 8.004 9.33131 8.136 9.79531 8.136Z" fill="#E4E4E4"/>
<path d="M16.7866 9.096C16.3386 9.096 15.9466 9.028 15.6106 8.892C15.2826 8.748 15.0186 8.548 14.8186 8.292C14.6266 8.036 14.5106 7.732 14.4706 7.38H15.5506C15.5986 7.612 15.7266 7.796 15.9346 7.932C16.1506 8.068 16.4346 8.136 16.7866 8.136H17.2906C17.7146 8.136 18.0306 8.052 18.2386 7.884C18.4466 7.708 18.5506 7.476 18.5506 7.188C18.5506 6.908 18.4546 6.688 18.2626 6.528C18.0786 6.36 17.8026 6.248 17.4346 6.192L16.5466 6.048C15.8986 5.936 15.4146 5.736 15.0946 5.448C14.7826 5.152 14.6266 4.724 14.6266 4.164C14.6266 3.572 14.8146 3.116 15.1906 2.796C15.5666 2.468 16.1306 2.304 16.8826 2.304H17.3386C17.9706 2.304 18.4786 2.452 18.8626 2.748C19.2466 3.044 19.4786 3.444 19.5586 3.948H18.4786C18.4306 3.74 18.3106 3.576 18.1186 3.456C17.9266 3.328 17.6666 3.264 17.3386 3.264H16.8826C16.4746 3.264 16.1746 3.34 15.9826 3.492C15.7986 3.644 15.7066 3.872 15.7066 4.176C15.7066 4.448 15.7866 4.648 15.9466 4.776C16.1066 4.904 16.3586 4.996 16.7026 5.052L17.5906 5.196C18.3026 5.308 18.8186 5.516 19.1386 5.82C19.4666 6.124 19.6306 6.564 19.6306 7.14C19.6306 7.748 19.4346 8.228 19.0426 8.58C18.6586 8.924 18.0746 9.096 17.2906 9.096H16.7866Z" fill="#E4E4E4"/>
<path d="M21.6899 9V0.239998H22.7699V3.66H22.9979L22.7699 3.912C22.7699 3.392 22.9259 2.992 23.2379 2.712C23.5499 2.424 23.9819 2.28 24.5339 2.28C25.1979 2.28 25.7259 2.484 26.1179 2.892C26.5099 3.3 26.7059 3.856 26.7059 4.56V9H25.6259V4.68C25.6259 4.208 25.4979 3.844 25.2419 3.588C24.9939 3.324 24.6539 3.192 24.2219 3.192C23.7739 3.192 23.4179 3.332 23.1539 3.612C22.8979 3.892 22.7699 4.288 22.7699 4.8V9H21.6899Z" fill="#E4E4E4"/>
<path fill-rule="evenodd" clip-rule="evenodd" d="M30.0132 8.796C30.3972 8.996 30.8532 9.096 31.3812 9.096C31.9092 9.096 32.3652 8.996 32.7492 8.796C33.1332 8.596 33.4292 8.308 33.6372 7.932C33.8532 7.548 33.9612 7.096 33.9612 6.576V4.812C33.9612 4.292 33.8532 3.844 33.6372 3.468C33.4292 3.092 33.1332 2.804 32.7492 2.604C32.3652 2.404 31.9092 2.304 31.3812 2.304C30.8532 2.304 30.3972 2.404 30.0132 2.604C29.6292 2.804 29.3292 3.092 29.1132 3.468C28.9052 3.844 28.8012 4.296 28.8012 4.824V6.576C28.8012 7.096 28.9052 7.548 29.1132 7.932C29.3292 8.308 29.6292 8.596 30.0132 8.796ZM32.4852 7.74C32.2212 8.004 31.8532 8.136 31.3812 8.136C30.9172 8.136 30.5492 8.004 30.2772 7.74C30.0132 7.476 29.8812 7.088 29.8812 6.576V4.824C29.8812 4.312 30.0132 3.924 30.2772 3.66C30.5492 3.396 30.9172 3.264 31.3812 3.264C31.8532 3.264 32.2212 3.396 32.4852 3.66C32.7492 3.924 32.8812 4.312 32.8812 4.824V6.576C32.8812 7.088 32.7492 7.476 32.4852 7.74Z" fill="#E4E4E4"/>
<path d="M29.4612 0.959998V0.0599976H31.3812H33.3012V0.959998H29.4612Z" fill="#0075FF"/>
</svg>
